{"title":"Extinction - The G.M.O. Chronicles 2011 BRRiP AC3 XViD - U.S.M","uid":6862388,"size":2234093305,"categoryP":"video","categoryS":"movies","magnet":"?xt=urn:btih:c5186ce8f9d9c19d537266f7d809d340e392b82e&amp;dn=Extinction+-+The+G.M.O.+Chronicles+2011+BRRiP+AC3+XViD+-+U.S.M&amp;tr=udp%3A%2F%2Ftracker.openbittorrent.com%3A80&amp;tr=udp%3A%2F%2Fopen.demonii.com%3A1337&amp;tr=udp%3A%2F%2Ftracker.coppersurfer.tk%3A6969&amp;tr=udp%3A%2F%2Fexodus.desync.com%3A6969","seeders":0,"leechers":1,"uploader":"TvTeam","files":5,"time":1322947892,"description":".\n &lt;a href=&quot;\nhttp://www.torrenting.com&quot; rel=&quot;nofollow&quot; target=&quot;_NEW&quot;&gt;\nhttp://www.torrenting.com&lt;/a&gt;          :     Once &amp; For all ;)\n\n\n               www . Torrenting . Com \n\n(((((((((((((= Enjoy No RAR releases =))))))))))))))))))))\n\n\n...................................NFO:....................................\n\n.UUUUUUUU     UUUUUUUU           SSSSSSSSSSSSSSS         MMMMMMMM               MMMMMMMM     \nU::::::U     U::::::U         SS:::::::::::::::S        M:::::::M             M:::::::M     \nU::::::U     U::::::U        S:::::SSSSSS::::::S        M::::::::M           M::::::::M     \nUU:::::U     U:::::UU        S:::::S     SSSSSSS        M:::::::::M         M:::::::::M     \n U:::::U     U:::::U         S:::::S                    M::::::::::M       M::::::::::M     \n U:::::D     D:::::U         S:::::S                    M:::::::::::M     M:::::::::::M     \n U:::::D     D:::::U          S::::SSSS                 M:::::::M::::M   M::::M:::::::M     \n U:::::D     D:::::U           SS::::::SSSSS            M::::::M M::::M M::::M M::::::M     \n U:::::D     D:::::U             SSS::::::::SS          M::::::M  M::::M::::M  M::::::M     \n U:::::D     D:::::U                SSSSSS::::S         M::::::M   M:::::::M   M::::::M     \n U:::::D     D:::::U                     S:::::S        M::::::M    M:::::M    M::::::M     \n U::::::U   U::::::U                     S:::::S        M::::::M     MMMMM     M::::::M     \n U:::::::UUU:::::::U         SSSSSSS     S:::::S        M::::::M               M::::::M     \n  UU:::::::::::::UU   ...... S::::::SSSSSS:::::S ...... M::::::M               M::::::M     \n    UU:::::::::UU     .::::. S:::::::::::::::SS  .::::. M::::::M               M::::::M     \n      UUUUUUUUU       ......  SSSSSSSSSSSSSSS    ...... MMMMMMMM               MMMMMMMM   \n\n\n\n                 Extinction - The G.M.O. Chronicles 2011 BRRiP AC3 XViD - U.S.M\n\n\nSOURCES:\n\nExtinction - The G M O Chronicles 2011 720p BluRay DTS x264-DNL\n\nIMDB:\n &lt;a href=&quot;\nhttp://www.imdb.com/title/tt1416336/&quot; rel=&quot;nofollow&quot; target=&quot;_NEW&quot;&gt;\nhttp://www.imdb.com/title/tt1416336/&lt;/a&gt;\n\nVideo\nID                               : 0\nFormat                           : MPEG-4 Visual\nFormat profile                   : Advanced Simple@L5\nFormat settings, BVOP            : 2\nFormat settings, QPel            : No\nFormat settings, GMC             : No warppoints\nFormat settings, Matrix          : Default (H.263)\nMuxing mode                      : Packed bitstream\nCodec ID                         : XVID\nCodec ID/Hint                    : XviD\nDuration                         : 1h 54mn\nBit rate                         : 2 101 Kbps\nWidth                            : 720 pixels\nHeight                           : 304 pixels\nDisplay aspect ratio             : 2.35:1\nFrame rate                       : 23.976 fps\nColor space                      : YUV\nChroma subsampling               : 4:2:0\nBit depth                        : 8 bits\nScan type                        : Progressive\nCompression mode                 : Lossy\nBits/(Pixel*Frame)               : 0.400\nStream size                      : 1.69 GiB (82%)\nWriting library                  : XviD 64\n\nAudio\nID                               : 1\nFormat                           : AC-3\nFormat/Info                      : Audio Coding 3\nMode extension                   : CM (complete main)\nCodec ID                         : 2000\nDuration                         : 1h 54mn\nBit rate mode                    : Constant\nBit rate                         : 448 Kbps\nChannel(s)                       : 6 channels\nChannel positions                : Front: L C R, Side: L R, LFE\nSampling rate                    : 48.0 KHz\nBit depth                        : 16 bits\nCompression mode                 : Lossy\nStream size                      : 368 MiB (17%)\nAlignment                        : Aligned on interleaves\nInterleave, duration             : 42 ms (1.00 video frame)\nInterleave, preload duration     : 512 ms\n\n\nWORKDONE:\n\nNothing done here.....just ya normal crop,resize,heavy noise filter,touch of sharpness and encoded the audio \nto AC3 from DTS and remuxed :D\nCheck sample for Q.\n\nSCREENIES:\n\n[IMG]http://i.imgur.com/M4jA8.png[/IMG]\n[IMG]http://i.imgur.com/ELm9B.png[/IMG]\n[IMG]http://i.imgur.com/GJpZk.png[/IMG]","torrent":{"xt":"urn:btih:c5186ce8f9d9c19d537266f7d809d340e392b82e","amp;dn":"Extinction+-+The+G.M.O.+Chronicles+2011+BRRiP+AC3+XViD+-+U.S.M","amp;tr":["udp%3A%2F%2Ftracker.openbittorrent.com%3A80","udp%3A%2F%2Fopen.demonii.com%3A1337","udp%3A%2F%2Ftracker.coppersurfer.tk%3A6969","udp%3A%2F%2Fexodus.desync.com%3A6969"],"infoHash":"c5186ce8f9d9c19d537266f7d809d340e392b82e","infoHashBuffer":{"type":"Buffer","data":[197,24,108,232,249,217,193,157,83,114,102,247,216,9,211,64,227,146,184,46]},"announce":[],"urlList":[]}}